
<svg width="100" height="60" viewBox="0 0 153 92" fill="none" xmlns="http://www.w3.org/2000/svg"><g clip-path="url(#clip0_364_2957)"   style="display: block; vertical-align: middle;"><path d="M122.863 13.6435C122.173 13.5862 121.478 13.6416 120.805 13.8076C120.261 13.8076 117.86 14.6427 118.135 14.3517C119.202 13.2037 120.91 13.1513 121.827 12.7785C122.319 12.5848 122.617 12.6218 122.453 12.227C122.29 11.8321 122.602 11.6974 121.544 11.9959C119.702 12.4566 117.942 13.1958 116.324 14.188C116.145 14.2948 115.958 14.387 115.765 14.4639C114.713 14.9187 113.938 15.9549 113.006 16.7005C112.64 16.7379 112.483 16.4993 111.999 16.7899C111.298 16.7899 110.985 16.1116 110.507 15.7238C109.971 15.5596 109.762 14.9781 109.292 14.6127C106.382 11.7498 103.028 9.29709 100.127 6.47904C99.2399 5.35306 98.8525 6.43415 97.9799 6.47904C97.5363 6.30703 97.06 6.23603 96.5856 6.27121C96.5856 6.27121 95.9666 5.90586 96.1008 6.75585C96.2682 10.421 96.9176 14.0482 98.0323 17.5439C98.2417 17.9567 98.2913 18.4324 98.1716 18.8796C98.0518 19.3268 97.7711 19.7141 97.3833 19.9671C97.0553 20.4442 97.3833 21.1001 97.0329 21.5847C96.8761 21.8308 96.5407 22.0469 96.4438 22.3304C96.3469 22.6139 96.9659 22.815 97.0703 23.0162C97.1746 23.2174 97.6444 23.456 97.9204 23.6575C98.1441 23.6575 98.3453 23.4713 98.5694 23.4264C99.4345 23.0387 99.084 21.995 99.3152 21.2651C99.5314 20.836 99.6341 20.3586 99.6132 19.8785C99.4994 18.4498 99.1596 17.0481 98.6064 15.7258C98.5493 14.4564 98.3133 13.2014 97.9055 11.9979C97.9055 11.0361 96.7049 7.9662 97.6668 7.66653C100.881 10.4547 103.632 14.2424 106.809 17.2392C107.765 17.94 108.875 19.8112 109.612 19.5801C111.573 19.1998 112.476 19.5801 112.7 18.2305C113.043 17.8726 113.445 18.0738 113.736 18.1474C115.115 18.043 116.488 17.6627 117.904 17.536C118.605 17.3942 121.022 17.536 120.194 16.3505C118.419 16.112 116.532 17.1706 114.789 16.8427C114.789 16.4998 115.2 16.4686 115.445 16.4686C116.795 16.0808 118.428 14.9777 120.367 14.8135C121.009 14.7915 121.648 14.7116 122.276 14.5749C122.528 14.5336 122.777 14.4763 123.022 14.4033C123.061 14.1392 123.005 13.8697 122.863 13.6435ZM109.897 18.0647C106.817 15.1718 103.26 11.653 100.136 8.4097C100.002 8.04435 99.39 7.58963 99.1439 7.32113C98.9946 7.17939 99.1439 7.07507 99.2632 6.94705C101.285 8.60966 103.179 10.4214 104.93 12.367C105.059 12.5088 105.198 12.6409 105.346 12.7623C105.456 12.7597 105.567 12.7723 105.674 12.7997C105.741 12.8371 105.719 13.1202 105.741 13.1426C106.83 14.1044 108.679 15.6103 109.693 16.7288C110.336 17.4084 110.403 17.9304 109.897 18.0647ZM69.6305 35.397C69.1607 35.5611 69.5473 36.9627 69.0339 37.3131C68.1539 37.7083 68.4598 38.8638 67.7814 39.4154C67.5353 39.6465 67.3266 39.952 66.9537 39.8477C66.5153 40.1467 66.0115 40.3359 65.4846 40.3995C64.9578 40.4631 64.4234 40.3991 63.9264 40.213C63.2999 40.0268 60.8019 39.4673 61.5627 40.772C61.7049 40.734 61.8558 40.745 61.9911 40.8031C62.1264 40.8612 62.2382 40.9632 62.3085 41.0925C62.8156 41.5697 63.5685 41.3835 64.1725 41.5913C67.088 43.0377 70.242 39.757 69.9439 36.8114C69.6679 36.185 70.4511 35.6929 69.6159 35.3949L69.6305 35.397ZM76.58 10.1379C76.7143 10.4659 77.0124 10.512 77.162 10.8163C77.6318 11.3753 78.176 10.5852 77.6093 10.2198C77.505 9.85447 77.8704 9.33242 78.2803 9.47416C78.4965 9.54856 78.7426 9.89894 78.9662 9.69029C79.4435 9.50408 79.1525 9.05644 78.9662 8.72101C78.7052 8.17694 77.9685 8.1096 77.7507 7.55056C77.1392 7.09585 76.58 6.11161 75.8267 5.98484C75.5137 6.1565 74.8797 6.32774 75.0809 6.7305C75.7 7.84899 75.9831 9.04895 76.5646 10.1388L76.58 10.1379ZM80.5098 24.0574C79.498 25.3702 78.6561 26.8055 78.0043 28.3294C78.0043 29.9321 77.3391 30.9238 77.4896 32.3328C77.798 32.4584 78.1432 32.4584 78.4516 32.3328C79.436 31.4903 78.2724 27.3002 82.6644 23.2149C82.8432 23.0432 83.0598 22.633 83.3059 22.9613C83.4701 23.707 82.4632 24.0944 82.3888 24.855C81.1038 26.8704 80.5436 29.2633 80.8004 31.6395C81.2992 31.9155 81.4269 31.6396 81.7698 31.5427C82.5156 30.9837 82.2994 28.8959 82.4038 28.1652C82.5285 26.9054 84.2384 24.005 84.8274 23.0657C85.1106 22.8232 85.427 22.6224 85.7669 22.4692C86.1099 22.3799 86.386 21.8279 86.7514 22.0536C86.9975 22.3815 86.5202 22.6725 86.3115 22.8811C85.9601 23.3249 85.7381 23.8571 85.6701 24.419C85.6312 24.5449 85.5813 24.6672 85.5208 24.7844C84.8794 25.9997 83.3807 30.0032 84.5813 30.9126C84.753 31.0373 84.8648 30.9957 85.1633 30.987C86.0954 30.987 85.2228 29.0114 85.6181 28.1016C87.2361 25.1194 86.3639 23.1812 89.1517 21.2946C89.8975 20.8175 90.1137 21.3989 89.5766 21.9135C88.9576 23.2926 87.5396 27.0504 88.0854 28.2579C87.9436 28.4366 87.8019 29.0779 88.1748 29.2791C88.1682 29.3531 88.1839 29.4274 88.2197 29.4924C88.2556 29.5575 88.31 29.6104 88.376 29.6445C90.2401 30.0601 89.3155 26.5429 89.9865 25.4693C90.2845 22.7855 90.5685 21.2422 92.6113 19.9671C93.2378 19.8253 93.9611 19.9671 94.5278 19.5867C94.9975 18.9679 95.7583 18.6474 96.0189 17.8718C96.2796 17.0962 95.6086 17.1261 95.9296 16.2616C95.8177 15.3888 95.8402 14.5246 95.7953 13.6431C95.2951 12.5744 94.7065 11.5495 94.0355 10.5789C93.2898 10.5789 93.6032 10.1317 93.3571 9.83327C91.6297 9.52273 89.8875 9.30076 88.1374 9.16824C87.6152 8.72849 86.8848 8.86981 86.2733 8.62417C85.7886 8.49947 85.6173 7.97535 85.0802 7.97535C83.9856 7.87026 82.9309 7.51026 82.0005 6.92419C80.3452 5.96239 78.758 4.97815 78.1602 4.68761C77.8322 4.51595 77.5486 4.97108 78.2433 5.91792C78.9891 6.39507 79.5183 6.43996 79.9137 7.06592C79.9731 7.42379 81.6139 8.2663 82.4786 8.31825C82.6218 8.45211 82.7911 8.55498 82.9758 8.62042C83.1606 8.68587 83.3569 8.71247 83.5524 8.69857C83.3129 8.96574 83.0979 9.25398 82.9101 9.55978C82.7983 9.76095 82.0899 10.2157 82.5821 10.3948C83.3279 10.5885 84.6329 8.15823 85.468 10.2606C85.8634 11.2298 83.4173 10.5365 82.6794 12.3334C82.5077 12.557 82.2321 12.6912 82.2097 12.296C82.0604 12.0649 81.7623 12.0499 81.5537 11.8932C80.8079 11.3416 80.0625 12.296 79.3167 12.3853C77.6838 13.444 76.938 12.5196 76.0358 11.0806C74.9621 9.29876 74.5447 7.22636 73.687 5.42206C73.3134 4.58864 72.8971 3.77498 72.4399 2.98431C72.1491 2.67985 71.9229 2.31976 71.7747 1.92567C71.9315 1.65716 71.9315 1.65716 72.2819 1.6422C72.6324 1.62724 73.2888 2.38786 73.7731 2.23865C74.0117 2.23865 74.8693 2.49219 74.7351 1.99259C74.437 0.933946 72.6399 0.828788 71.8251 0.315054C71.5827 0.16418 71.3151 0.0581633 71.0352 0.0020752C70.7443 0.102308 70.4863 0.280263 70.2894 0.516641C70.3863 2.64141 71.9523 4.565 72.6174 6.48111C73.1691 7.88266 73.4376 9.35154 74.0491 10.7007C74.1235 10.8125 74.437 10.9468 74.4594 11.081C74.4819 11.2153 74.1834 11.357 74.2952 11.5432C74.8249 12.0279 75.041 12.818 75.5553 13.3625C75.8238 13.7727 76.6216 13.5117 77.0465 13.646C77.5798 14.0194 78.1796 14.2875 78.8137 14.4357C79.7233 14.4881 79.8351 13.2578 80.6183 13.0715C80.9613 13.2058 81.4834 13.4872 81.8783 13.2432C82.876 12.9227 82.4674 13.9082 82.2587 14.3987C82.3631 14.7865 81.8634 15.5916 82.3705 15.7558C82.8777 15.9199 83.2726 15.4648 83.3325 14.8908C83.3325 14.6448 83.3325 14.5479 83.3994 14.4511C83.4664 14.3542 83.668 14.5255 83.72 14.4511C83.7719 14.3767 83.8767 14.3679 83.9278 14.2869C84.1212 14.0032 84.286 13.701 84.42 13.3849C85.3895 12.2664 87.2386 11.4913 88.6479 11.096C89.6768 11.357 91.2802 10.8125 91.8767 11.9011C92.1154 12.6468 93.0998 12.3857 93.2561 13.079C93.5766 14.5699 94.1137 16.5459 92.8237 17.6789C92.0779 18.3348 90.9073 18.3648 90.0351 18.7002C89.3839 19.0851 88.6875 19.388 87.9619 19.6021C86.2246 20.3478 84.2334 19.699 82.6079 20.482C82.1007 20.7875 81.6609 21.2277 81.1167 21.4887C80.7035 21.7059 80.2578 21.8544 79.7968 21.9285C79.2672 22.0478 79.1629 22.5104 78.9238 22.5844C78.3497 22.7706 78.0068 22.0403 77.4327 21.9355C76.8684 21.8609 76.2967 21.8609 75.7324 21.9355C74.6159 22.1292 73.4758 22.1444 72.3547 21.9804C71.9001 21.7868 71.4591 21.5627 71.0348 21.3096C70.7217 21.1978 70.1547 21.056 70.1547 21.056C70.1547 21.056 68.9907 21.8017 68.4324 21.6379C68.037 21.5336 68.1489 20.7879 67.4629 20.6462C67.0131 20.5115 66.5548 20.407 66.0911 20.3332C65.5288 20.3488 64.9696 20.2447 64.4507 20.0277C63.936 19.7443 63.556 19.2152 62.9595 19.0211C62.5122 18.8718 61.99 19.0211 61.7123 18.5289C61.5123 18.0908 61.2001 17.7132 60.8073 17.4343C60.4145 17.1555 59.955 16.9852 59.4753 16.9408C59.1993 16.9408 58.9607 17.2911 58.7745 17.1486C58.5882 17.006 58.8638 16.7683 58.6913 16.5895C58.2664 16.1498 57.8636 15.7246 57.4163 15.3073C56.6705 14.1668 55.6491 14.4573 54.7245 13.8164C53.9787 13.3093 53.6208 12.3255 52.6069 12.3255C51.2645 11.5798 50.7054 9.97708 49.1095 9.51489C47.499 8.70979 46.3578 6.99485 44.5906 6.65942C43.0242 6.16564 42.0103 3.7279 40.2426 3.55624C39.1988 3.10152 38.0057 3.09404 37.0661 2.33341C36.4677 2.10111 35.8486 1.9263 35.217 1.81137C35.0528 1.98303 35.1426 2.33341 35.217 2.55703C36.2384 3.52631 37.6332 3.88418 38.8708 4.5251C39.6166 4.87549 40.5336 4.78612 41.0109 5.52264C41.8007 6.17852 42.9348 6.9616 43.7026 7.70726C44.1728 7.75118 44.6267 7.90157 45.03 8.14701C45.2312 8.4974 45.3954 8.89267 45.8876 8.81786C47.1792 9.68025 48.4239 10.611 49.6162 11.606C51.6744 12.9331 53.6129 14.3272 55.5817 15.7287C57.7593 15.5945 57.8711 18.2413 59.534 19.0614C60.5703 19.6354 62.1139 19.3594 62.7928 20.5523C63.2251 21.2011 61.9651 21.2979 62.4797 21.9019C62.8152 22.5952 63.576 21.5889 63.7996 22.8578C63.8872 23.3569 63.8461 23.87 63.6803 24.3488C63.1815 25.5126 61.6745 25.8397 60.8094 26.7645C59.1607 27.1375 57.5428 27.636 55.97 28.2554C55.6305 28.3549 55.2689 28.3498 54.9324 28.2407C54.5959 28.1316 54.3 27.9237 54.0835 27.644C53.8983 27.2404 53.7921 26.8052 53.7705 26.3617C53.2868 24.0466 52.452 21.8191 51.2949 19.7563C50.7227 18.403 50.0831 17.0792 49.3784 15.7898L47.8872 13.9195C47.643 13.619 47.3791 13.3351 47.0974 13.0695C46.8438 12.9502 46.9257 12.8458 47.0974 12.7116C47.2691 12.5773 46.9037 12.4206 47.0974 12.2494C47.2911 12.0782 47.5447 12.3612 47.6046 12.2494C47.6517 12.126 47.6569 11.9905 47.6193 11.8638C47.5818 11.7372 47.5035 11.6264 47.3967 11.5486C46.6509 10.8778 46.3603 11.7648 44.7777 12.4581C44.1662 12.7266 42.5407 12.1895 42.9286 12.9801C42.9955 13.1048 43.3759 13.3829 43.1364 13.5915C42.897 13.8002 42.6143 13.5246 42.4355 13.5915C40.1977 14.2848 37.8115 16.3796 35.6269 17.1103C35.7516 16.5139 35.1721 17.1552 35.1721 17.2745C35.1697 17.5244 35.1897 17.7739 35.232 18.0202C36.3058 18.7135 37.5958 17.1702 38.6026 16.9541C39.4902 16.6856 40.2281 16.999 40.9069 16.2533C41.1082 15.9848 41.2424 15.575 41.6527 15.575C44.2102 14.7852 41.3992 17.23 41.3397 18.147C41.1609 18.7733 40.5939 19.1981 40.6538 19.8927C40.6833 20.2962 40.6326 20.7017 40.5046 21.0855C40.3766 21.4694 40.1738 21.8241 39.908 22.1292C39.7193 22.5579 39.6131 23.0183 39.5949 23.4863C39.6324 23.9851 40.3848 24.0009 40.5195 23.5387C41.0848 22.7077 41.5194 21.795 41.8082 20.8324C41.9649 19.8856 42.4792 19.3415 42.6509 18.5958C42.6958 18.3498 43.4486 16.553 43.6353 16.6353C44.3362 16.8514 43.3223 20.184 43.0836 20.8179C43.2404 21.4667 42.3378 23.7552 42.3378 25.1347C42.3378 25.9997 42.5316 26.0591 43.0836 26.0516C44.0456 25.2017 43.6428 24.1729 43.9487 23.1887C44.2323 21.4368 44.8363 19.7069 44.9107 17.903C44.778 17.2182 44.8723 16.5089 45.1793 15.8825C45.1429 15.2387 45.2578 14.5953 45.5147 14.0038C46.1562 13.3999 46.4243 14.0633 46.648 14.6003C46.6447 14.6199 46.6481 14.6401 46.6576 14.6577C46.6671 14.6752 46.6821 14.6891 46.7004 14.6971C46.9307 15.0882 47.1398 15.4914 47.3269 15.905C48.0053 16.3372 47.7592 17.038 48.5349 17.4932C48.6917 18.0372 48.9228 18.6935 49.4969 18.8947C50.8018 20.1919 50.071 22.2868 51.2342 23.7033C51.2968 24.4042 51.3988 25.1011 51.5397 25.7906C51.6746 26.4139 51.8876 27.0176 52.1737 27.5875C52.3564 28.1665 52.6067 28.7221 52.9195 29.2425C52.9794 29.4811 53.0313 29.7122 53.3223 29.7571C54.4399 29.9424 55.5865 29.832 56.6481 29.4366C57.3939 29.3697 58.0274 28.7301 58.8405 28.7301C59.9069 28.8344 60.6971 27.8281 61.6965 27.6939C62.6345 26.8428 63.6984 26.1418 64.8506 25.6156C65.5157 25.3101 65.9393 24.2216 66.6702 24.1247C66.9982 24.2814 66.6702 24.5404 66.6107 24.7287C66.5213 25.1165 66.9312 25.3845 67.088 24.9972C67.2958 24.8479 67.5502 24.8035 67.677 24.5499C68.296 23.6106 69.0938 24.259 68.2437 24.9972C67.6891 25.8952 67.3828 26.9243 67.3561 27.9794C67.3998 28.2058 67.4275 28.4349 67.4392 28.6652C67.3869 28.8294 67.0888 29.1498 67.0813 29.2471C66.8651 30.9321 68.1102 32.386 67.3943 34.0931C66.947 34.9356 66.8797 35.9124 65.9626 36.4938C65.2916 36.9261 65.1125 37.8434 64.1655 37.6942C62.2864 37.2245 59.6017 37.0009 57.8495 36.2478L57.3947 35.9868C56.5445 35.3978 54.8742 35.0624 54.0839 34.4958C53.5938 34.2778 53.1181 34.0288 52.6597 33.7502C52.3911 33.564 52.13 33.586 51.8544 33.3699H51.8095L51.489 33.1313C49.58 32.1753 48.1558 30.4712 45.8739 31.2609C45.7022 31.3133 45.0388 31.2609 44.9569 31.4176C44.6139 32.044 45.0612 31.9322 44.4796 32.5814C44.2784 32.6708 44.3549 32.9318 44.2185 33.1109C44.0998 33.5858 44.0998 34.0825 44.2185 34.5574C44.2507 34.6525 44.3155 34.7332 44.4015 34.7851C44.4875 34.837 44.5891 34.8567 44.6883 34.8408C44.7714 34.9377 44.8962 34.9526 45.0537 34.8408C45.7097 34.4471 46.3444 34.0191 46.9552 33.5586C47.3506 33.1188 48.4464 33.3508 48.9835 33.4393C49.5206 33.5278 49.5726 33.7822 49.923 34.1849C51.7576 34.6247 53.1964 36.0487 54.9116 36.7569C56.4913 38.0317 58.8638 38.0242 60.8771 38.2948C62.321 39.019 63.9133 39.3983 65.5286 39.4029C66.2744 39.06 67.4825 38.8884 67.4825 37.8746C68.0708 36.869 68.5697 35.8138 68.9736 34.7211C69.1524 34.52 69.3091 34.1916 69.1815 34.0873C69.0662 33.9916 68.977 33.8682 68.9223 33.7288C68.8675 33.5893 68.849 33.4382 68.8685 33.2896C68.7267 30.8519 68.2944 28.3468 68.8685 25.9328C69.0351 25.4747 69.3397 25.0795 69.7403 24.8018C70.141 24.524 70.6179 24.3774 71.1054 24.382C71.4796 24.2627 71.8512 23.9273 72.2387 24.1285C72.6261 24.3296 74.4237 23.234 74.3489 24.4265C74.0508 25.3064 73.2826 25.1721 72.8577 26.1859C72.6116 26.5064 72.4835 26.9316 72.1568 27.1552C71.83 27.3788 72.2312 28.1245 71.9556 28.5048C71.8758 28.666 71.8158 28.8363 71.7768 29.0119C71.2378 30.1997 71.0789 31.5251 71.322 32.8067C71.8292 33.0453 72.0005 33.0228 72.1797 32.9409C72.7837 32.6724 72.7238 31.6138 72.8731 30.9504C73.3653 28.8851 73.6189 26.9914 75.11 25.4781C75.6467 25.104 76.5193 23.4202 77.0639 24.2108C76.9596 24.9041 77.0639 24.9564 76.7658 25.4577C76.7064 25.5545 76.93 25.6655 76.8182 25.8455C76.7064 26.0255 76.4603 25.9124 76.4025 26.0022C76.0555 26.4946 75.7345 27.0047 75.4405 27.5305C74.6217 29.1646 74.2439 30.9842 74.3443 32.8092C74.6573 33.2194 75.0452 33.0926 75.448 32.921C76.1938 32.4663 75.7315 30.6844 75.8804 29.8569C76.1917 27.9653 79.8081 22.5694 80.509 24.0586L80.5098 24.0574ZM96.9148 44.15C96.1021 43.2626 97.0341 42.9421 96.3033 43.002C94.7747 42.4355 93.1937 41.9953 91.6202 41.5555C90.8744 41.3477 90.0821 41.1399 89.3234 40.9067C88.5647 40.6735 87.8322 40.2654 87.0864 40.0268C86.3531 39.7702 85.6063 39.5536 84.8495 39.378C84.2296 39.3258 83.6263 39.1509 83.0748 38.8634C82.4096 38.3937 81.5013 38.5205 80.8378 38.1178C80.5842 37.8268 79.6522 38.1178 79.6896 37.5812C83.1197 36.4174 86.3261 34.921 89.9649 34.5989C91.456 33.9501 92.7015 31.9746 94.2002 31.2813C95.1023 30.9533 95.3933 29.8348 96.221 29.4026C96.7876 29.1565 97.3991 29.6037 97.967 29.477C98.2206 29.3523 98.2505 28.5077 98.4068 28.3065C99.1526 27.7175 97.8701 26.9494 97.5047 26.5396C97.1543 25.794 94.6038 28.903 94.179 29.3207C91.5915 32.1088 88.7805 32.9887 85.3949 34.0623C82.5365 34.9426 79.7678 36.0909 77.1254 37.4918C76.2308 38.3193 78.1618 38.1107 78.6166 38.5953C78.9596 38.9694 78.3185 39.05 78.0945 39.1918C76.812 39.9374 80.3314 40.6232 80.7713 41.2571C84.7518 43.2119 88.9089 44.7845 93.1867 45.9539C94.0443 46.2893 93.239 46.9456 93.3945 47.5715C93.2008 48.2054 93.1867 49.018 92.9842 49.6664C92.4475 51.3589 92.5369 53.5136 92.1041 54.7659C91.6119 56.2049 91.0303 57.6663 91.5895 58.0017C92.0223 58.2036 92.5062 58.2693 92.9771 58.19C93.0334 58.1819 93.0873 58.1616 93.1349 58.1305C93.1824 58.0993 93.2226 58.0581 93.2525 58.0097C93.2823 57.9613 93.3012 57.907 93.3077 57.8505C93.3142 57.794 93.3082 57.7368 93.2902 57.6829C93.1559 57.3699 93.3646 57.2672 93.387 57.1164C93.6556 55.5136 94.3848 50.9507 94.4982 48.3338C94.4014 48.0059 94.5814 47.4319 94.9231 47.8866C94.8279 48.8082 94.8559 49.7384 95.0063 50.6527C95.0995 51.1692 95.1395 51.6938 95.1256 52.2184C95.1225 52.6094 95.1423 53.0002 95.185 53.3889C95.2519 53.8511 95.3642 54.2908 95.461 54.7385C95.5355 55.0739 95.185 55.3424 95.461 55.5282C95.7371 55.714 95.6689 56.4227 95.8115 56.7286C95.9084 57.623 96.9373 57.3549 97.1464 56.7286C98.004 55.8935 96.751 54.2235 96.8928 53.1274C96.5573 51.3531 96.3561 49.7192 95.9158 47.983C95.976 47.4669 95.9331 46.9441 95.7897 46.4446C95.6464 45.9452 95.4054 45.4792 95.0807 45.0735C89.8282 43.5796 84.6773 41.7492 79.6601 39.5937C79.2444 39.4894 79.6601 38.9598 79.7943 38.9823C83.7615 40.2496 87.5716 42.0689 91.7254 43.0456C92.3162 43.1989 92.8925 43.4035 93.4477 43.657C94.2376 44.0673 95.3417 43.7763 95.9907 44.522C96.3864 45.2698 96.6535 46.0788 96.7805 46.9152C96.8549 47.34 96.9223 47.7727 97.0042 48.1975C97.0861 48.6223 97.2727 49.0101 97.3546 49.4278C97.4365 49.8455 97.5858 51.2396 98.1004 51.2916C98.6151 51.3435 99.0624 51.5301 99.3384 51.0081C99.0712 49.8037 98.7173 48.6202 98.2796 47.4668C98.3008 46.1268 97.6074 45.2024 96.914 44.1512L96.9148 44.15ZM52.1733 31.253C54.3059 31.918 57.6316 31.9987 59.1228 30.0892C59.2721 28.8664 57.9588 29.9699 57.4005 30.0061C56.0507 30.595 54.0598 30.8789 52.7698 30.1703C52.6131 29.9392 52.0989 30.3714 52.2851 30.6923C52.315 30.9999 51.9646 30.9325 52.1733 31.253Z" fill="black"></path><path d="M48.0348 34.3994C47.8411 34.2132 47.7218 34.3994 47.5277 34.5037C45.723 35.6517 44.9627 36.1139 43.1805 37.3368C42.9726 37.523 41.6893 38.6864 42.0165 38.8277C42.3969 39.2304 42.8816 38.671 43.3514 38.671C44.4551 37.9253 45.469 37.3438 46.5578 36.7474C47.5497 35.9124 48.049 36.5612 48.7428 35.4053C49.4217 34.8836 48.2735 34.6384 48.0348 34.3994ZM40.3096 40.7737C38.9872 42.4038 37.4046 43.8044 35.6257 44.9189C35.6856 45.6646 35.6257 46.2161 35.9462 46.2236C36.4817 46.0105 36.9838 45.7217 37.4374 45.3661C37.7504 44.6803 38.0115 45.0083 38.2651 44.7996C40.0847 43.3087 40.9793 41.5576 42.411 40.4308C42.6808 38.5371 40.8388 40.1024 40.3096 40.7737ZM41.622 38.0226C41.7185 37.7473 41.7392 37.4511 41.6818 37.1651C40.5178 37.1651 38.6172 38.2836 37.5883 38.7533C37.2748 38.8915 36.9322 38.9504 36.5906 38.9249C36.2252 38.8875 35.8448 38.9249 35.8448 39.3277C35.8689 39.5216 35.846 39.7185 35.7778 39.9017C35.5987 40.0879 35.1663 39.777 35.279 40.4682C36.2351 41.4525 38.791 38.9773 39.8128 38.8505C39.6049 39.6402 38.6346 40.1328 38.1649 40.4757C37.4191 41.3926 35.227 41.6395 35.3463 43.0402C35.3014 43.3906 35.1526 43.8603 35.6893 43.7859C36.7527 43.1745 40.7344 39.5584 41.622 38.0226Z" fill="black"></path><path d="M116.689 88.9658L111.73 82.1962C114.116 81.1675 116.823 79.5494 116.704 75.8294C116.532 70.4676 112.871 69.1197 107.256 69.2623H101.993C101.973 69.2619 101.954 69.2684 101.939 69.2806C101.924 69.2929 101.913 69.3101 101.91 69.3292C101.91 69.426 102.059 69.5752 102.171 69.6796C102.64 70.1268 102.64 73.2283 102.64 74.2201V87.9454C102.695 88.9114 102.584 89.8797 102.312 90.8084C102.074 91.3449 101.925 91.3449 101.955 91.4497C101.959 91.4683 101.97 91.4849 101.985 91.4969C102 91.509 102.018 91.5159 102.038 91.5166H106.161C106.18 91.5159 106.199 91.509 106.214 91.4969C106.229 91.4849 106.24 91.4683 106.244 91.4497C106.282 91.3304 106.12 91.3753 105.829 90.704C105.667 89.8007 105.579 88.8855 105.568 87.9679V71.8704C105.568 70.8492 106.075 70.7669 107.35 70.7519C111.645 70.6996 113.554 72.9885 113.576 76.0676C113.576 79.5494 111.712 81.1895 107.902 81.4581L113.919 90.0245C114.293 90.6099 114.808 91.0925 115.416 91.4285C116.024 91.7644 116.707 91.943 117.402 91.948C118.079 91.9486 118.755 91.8911 119.423 91.7764C119.446 91.7757 119.469 91.7683 119.489 91.7549C119.509 91.7415 119.524 91.7228 119.534 91.701C119.543 91.6792 119.546 91.6551 119.542 91.6316C119.538 91.6082 119.528 91.5863 119.512 91.5686C118.42 90.8828 117.464 90.0006 116.693 88.9666L116.689 88.9658Z" fill="black"></path><path d="M65.9011 69.2835V72.3251C65.9011 72.3251 65.9011 72.4295 65.968 72.4295C66.035 72.4295 66.3185 72.1834 66.7138 72.0138C67.7657 71.7792 68.8431 71.679 69.9202 71.7158H73.4322V87.9388C73.4968 88.9021 73.3883 89.8692 73.1117 90.7942C72.8282 91.3982 72.7463 91.3163 72.7687 91.4356C72.7912 91.5548 72.9625 91.5399 72.9625 91.5399H77.056C77.0766 91.54 77.0966 91.5324 77.1119 91.5187C77.1273 91.505 77.137 91.486 77.1392 91.4655C77.1392 91.3537 76.975 91.3612 76.7143 90.6529C76.5128 89.7529 76.4226 88.8316 76.4457 87.9097C76.4457 83.8463 76.4457 72.9021 76.4457 71.7166H79.9577C81.0348 71.6799 82.1123 71.78 83.1641 72.0147C83.5799 72.1863 83.8056 72.4303 83.9099 72.4303C84.0143 72.4303 83.9694 72.326 83.9694 72.326V69.2835H65.9011Z" fill="black"></path><path d="M99.9712 88.1308C99.8294 88.1308 99.6132 88.4587 99.0616 88.6603C98.2126 88.8845 97.3372 88.9923 96.4592 88.9808H89.4568V81.19H94.423C95.6123 81.1614 96.8022 81.1987 97.9874 81.3018C98.6583 81.436 98.6658 81.6671 98.7772 81.6596C98.792 81.6619 98.8071 81.6586 98.8195 81.6503C98.8319 81.642 98.8407 81.6293 98.8441 81.6148V78.3939C98.8443 78.3851 98.8427 78.3763 98.8394 78.3681C98.8361 78.3599 98.8312 78.3525 98.8249 78.3462C98.8187 78.34 98.8112 78.3351 98.803 78.3318C98.7948 78.3285 98.7861 78.3269 98.7772 78.327C98.5624 78.5391 98.2859 78.6775 97.9874 78.7223C96.7989 78.8097 95.6065 78.832 94.4155 78.7892H89.4568V71.6543H96.0252C96.8984 71.6387 97.7695 71.7466 98.6126 71.9748C99.0375 72.1389 99.2615 72.3995 99.3584 72.3995C99.4552 72.3995 99.4253 72.2952 99.4253 72.2952V69.2835H85.8555C85.8555 69.2835 85.7511 69.2835 85.7511 69.3504C85.7511 69.4173 85.8555 69.4472 86.1016 69.9917C86.3749 70.8943 86.4835 71.8388 86.4221 72.7799V88.0339C86.487 88.9776 86.3784 89.9251 86.1016 90.8296C85.863 91.3441 85.7586 91.3811 85.7511 91.4709C85.7437 91.5607 85.8405 91.5378 85.8405 91.5378H99.7026L100.046 88.2871C100.046 88.2871 100.068 88.1308 99.9712 88.1308Z" fill="black"></path><path d="M152.989 91.2992L152.504 90.8965C151.846 90.2961 151.258 89.6233 150.752 88.891L144.786 80.1978L151.497 70.8338C151.765 70.4632 152.064 70.1165 152.392 69.7976L152.742 69.4622C152.755 69.4468 152.764 69.4279 152.766 69.4079C152.769 69.3878 152.765 69.3675 152.757 69.3493C152.748 69.3312 152.734 69.3159 152.717 69.3055C152.699 69.2951 152.679 69.2899 152.659 69.2905H147.814C147.795 69.2913 147.776 69.2982 147.761 69.3102C147.746 69.3223 147.736 69.3388 147.731 69.3575C147.87 69.5811 147.942 69.8398 147.939 70.1031C147.918 70.2968 147.883 70.4887 147.834 70.6771C147.797 70.7964 147.751 70.9157 147.7 71.0512C147.684 71.0987 147.661 71.1439 147.633 71.1855C147.238 71.8713 143.547 77.4928 143.286 77.7464C143.04 77.5003 139.401 72.013 138.879 71.141C138.29 69.7394 138.879 69.4634 138.819 69.3591C138.815 69.3405 138.804 69.3239 138.789 69.3119C138.774 69.2998 138.756 69.2929 138.736 69.2922H130.648C130.628 69.2928 130.609 69.2995 130.593 69.3115C130.577 69.3235 130.565 69.3401 130.559 69.3591C130.559 69.4634 131.081 69.7332 130.514 71.1185C129.97 72.028 126.315 77.7539 126.04 77.9999C125.786 77.7539 121.857 71.8484 121.447 71.1485C120.858 69.7469 121.447 69.4709 121.387 69.3666C121.382 69.348 121.372 69.3314 121.357 69.3194C121.342 69.3073 121.323 69.3004 121.304 69.2997H116.301C116.285 69.3006 116.27 69.3059 116.257 69.3149C116.243 69.3239 116.233 69.3362 116.226 69.3507C116.219 69.3652 116.216 69.3813 116.218 69.3972C116.219 69.4132 116.225 69.4285 116.234 69.4414L116.659 69.7993C117.134 70.2019 117.553 70.6656 117.906 71.1784L124.467 80.6214V81.037V86.7854C124.467 87.7771 124.414 90.1936 124.109 90.8412C123.803 91.4888 123.744 91.3558 123.744 91.4676C123.744 91.5794 123.84 91.5507 123.84 91.5507H127.927C127.927 91.5507 128.031 91.5507 128.031 91.4676C127.893 91.2689 127.771 91.0594 127.666 90.8412C127.375 90.2148 127.308 87.7771 127.308 86.7854V80.6214C127.308 80.6214 133.34 71.1231 134.399 70.0794C135.838 71.5703 141.558 80.3753 141.558 80.3753L135.212 89.4633C134.767 90.1076 134.223 90.6786 133.602 91.1558L133.468 91.2602C133.455 91.278 133.448 91.2987 133.447 91.3202C133.446 91.3416 133.451 91.3631 133.46 91.3821C133.47 91.4012 133.485 91.4173 133.504 91.4286C133.522 91.4399 133.543 91.446 133.564 91.4464H138.359C138.379 91.4456 138.397 91.4387 138.412 91.4267C138.427 91.4146 138.438 91.3981 138.442 91.3794C138.311 91.1773 138.239 90.9422 138.235 90.7011C138.276 90.323 138.4 89.9588 138.6 89.635C138.995 88.9492 142.813 83.119 143.074 82.8654C143.328 83.119 147.175 88.9492 147.548 89.635C147.696 89.8876 147.804 90.1617 147.868 90.4476C147.924 90.7715 147.855 91.1046 147.675 91.3794C147.681 91.3977 147.693 91.4134 147.709 91.4241C147.726 91.4348 147.745 91.44 147.764 91.4389H152.894C152.912 91.441 152.93 91.4382 152.946 91.4309C152.962 91.4235 152.976 91.412 152.986 91.3974C152.996 91.3827 153.002 91.3657 153.003 91.348C153.003 91.3304 153 91.3128 152.991 91.2972L152.989 91.2992Z" fill="black"></path><path d="M21.1978 91.2173C21.0114 91.0263 20.8486 90.8135 20.7131 90.5835C20.3177 89.9052 19.5125 88.4961 19.162 87.7206L11.1612 69.6488C10.6989 68.687 10.6989 68.687 10.2366 69.6488L2.16837 87.7206C1.74464 88.7306 1.2462 89.7077 0.677197 90.6438C0.470594 90.9054 0.24848 91.1544 0.0120497 91.3894C0.00493092 91.4017 0.00107038 91.4156 0.000835384 91.4298C0.000600393 91.4439 0.00399877 91.4579 0.0107072 91.4704C0.0174156 91.4829 0.0272109 91.4935 0.0391612 91.5012C0.0511115 91.5088 0.0648192 91.5133 0.0789801 91.5141H4.18003C4.19924 91.5134 4.21771 91.5065 4.23269 91.4944C4.24766 91.4824 4.25835 91.4658 4.26317 91.4472C4.15786 91.2877 4.08868 91.1071 4.06046 90.9181C4.03224 90.729 4.04567 90.5361 4.09979 90.3528C4.10767 90.2917 4.12274 90.2317 4.14469 90.1741C4.19067 90.0146 4.24549 89.8578 4.3089 89.7044C4.36835 89.5552 10.4831 75.8219 10.4831 75.8219C10.6548 75.4566 10.6993 75.4566 10.8635 75.8219C10.8635 75.8219 16.5904 88.6898 17.0078 89.6367C17.0047 89.6589 17.0047 89.6814 17.0078 89.7036C17.096 89.9197 17.1682 90.142 17.224 90.3686V90.4804C17.235 90.6049 17.235 90.73 17.224 90.8545C17.2002 91.071 17.1292 91.2797 17.0161 91.4659C17.0209 91.4845 17.0316 91.5011 17.0466 91.5131C17.0616 91.5252 17.08 91.5321 17.0993 91.5328H21.2298C21.25 91.5333 21.27 91.5282 21.2876 91.5182C21.3052 91.5082 21.3197 91.4936 21.3296 91.476C21.3396 91.4584 21.3446 91.4384 21.344 91.4182C21.3435 91.3979 21.3375 91.3782 21.3267 91.3612C21.2881 91.3113 21.2465 91.264 21.202 91.2194L21.1978 91.2173Z" fill="black"></path><path d="M61.4122 74.2712L65.4239 67.1363H61.4122V74.2712Z" fill="black"></path><path d="M37.3343 88.9658L32.3744 82.1962C34.7606 81.1675 37.4748 79.5494 37.348 75.8294C37.1763 70.4676 33.5151 69.1197 27.9004 69.2623H22.637C22.6175 69.2619 22.5985 69.2684 22.5833 69.2806C22.5681 69.2929 22.5577 69.3101 22.5539 69.3292C22.5539 69.426 22.7031 69.5752 22.8149 69.6796C23.2847 70.1268 23.2847 73.2283 23.2847 74.2201V87.9454C23.3392 88.9114 23.2282 89.8797 22.9567 90.8084C22.7181 91.3449 22.5688 91.3449 22.5988 91.4497C22.6049 91.4687 22.6168 91.4853 22.6329 91.4973C22.6489 91.5093 22.6682 91.516 22.6882 91.5166H26.8204C26.8404 91.516 26.8597 91.5093 26.8757 91.4973C26.8917 91.4853 26.9036 91.4687 26.9098 91.4497C26.9098 91.3304 26.7755 91.3753 26.4849 90.704C26.3266 89.8002 26.2393 88.8853 26.2238 87.9679C26.2238 87.9679 26.2238 73.3401 26.2238 71.8717C26.2238 70.8504 26.7385 70.7681 28.006 70.7532C32.3012 70.7008 34.2102 72.9898 34.2326 76.0688C34.2326 79.5507 32.3685 81.1908 28.5581 81.4593L34.5756 90.0257C34.9497 90.6111 35.4643 91.0938 36.0725 91.4297C36.6807 91.7657 37.3632 91.9443 38.058 91.9493C38.7353 91.9498 39.4114 91.8924 40.0788 91.7776C40.1026 91.777 40.1257 91.7695 40.1454 91.7561C40.165 91.7428 40.1805 91.7241 40.1899 91.7022C40.1993 91.6804 40.2022 91.6563 40.1984 91.6329C40.1945 91.6094 40.1841 91.5875 40.1682 91.5698C39.0717 90.8841 38.1111 90.0021 37.3347 88.9679L37.3343 88.9658Z" fill="black"></path><path d="M59.1536 87.2658C57.1702 89.344 53.9787 90.017 51.2496 90.017C45.9255 90.017 42.1969 85.2454 42.1375 80.4368C42.0631 74.4129 45.9404 70.7449 51.6449 70.7449C53.7476 70.7449 57.3045 72.1019 58.6319 74.2778C58.7827 74.6352 58.9122 75.0012 59.0197 75.3739C59.0301 75.4072 59.0531 75.4351 59.0837 75.4518C59.1144 75.4685 59.1503 75.4726 59.1839 75.4632C59.1959 75.4642 59.208 75.4625 59.2192 75.4584C59.2305 75.4542 59.2407 75.4476 59.2492 75.4391C59.2577 75.4307 59.2643 75.4204 59.2684 75.4092C59.2726 75.3979 59.2743 75.3859 59.2733 75.3739V70.0811C59.2733 70.0608 59.2692 70.0408 59.2613 70.0222C59.2533 70.0036 59.2417 69.9868 59.227 69.9728C59.2123 69.9589 59.195 69.9481 59.176 69.941C59.157 69.934 59.1368 69.9309 59.1166 69.9319H58.027C55.9814 69.4162 53.8918 69.0941 51.7858 68.9701C44.2323 68.8657 39.2728 73.1078 39.1094 80.4663C38.9527 87.3178 43.9936 92 51.6071 92C53.9277 91.9606 56.2385 91.6884 58.5047 91.1874L59.3918 87.4612C59.4155 87.4294 59.426 87.3896 59.421 87.3503C59.4161 87.3109 59.3962 87.275 59.3654 87.25C59.3346 87.225 59.2953 87.2128 59.2557 87.2161C59.2162 87.2194 59.1795 87.2378 59.1532 87.2675L59.1536 87.2658Z" fill="black"></path></g></svg>
