<svg fill="none" height="38" viewBox="0 0 53 38" width="53" xmlns="http://www.w3.org/2000/svg">
<path d="M47.104 6.84283C47.104 4.36636 46.5906 3.26089 45.3718 3.26089C44.153 3.26089 43.6396 4.36636 43.6396 6.84283C43.6396 9.3219 44.153 10.4317 45.3718 10.4317C46.5906 10.4317 47.104 9.32103 47.104 6.84283ZM50.5024 0.326262V13.3611H47.6182L47.4237 12.45C46.8511 13.3611 45.8268 13.6874 44.6664 13.6874C41.778 13.6874 40.2429 11.3411 40.2429 6.84283C40.2429 2.4782 41.8457 0 44.6664 0C45.8268 0 46.8511 0.393076 47.4237 1.2391L47.6182 0.325394H50.5024V0.326262ZM35.9792 0C34.8264 0 33.9265 0.393076 33.222 1.2391L33.0266 0.325394H30.1433V13.3611H33.5425V5.21672C33.5425 3.91254 34.0568 3.26089 34.8281 3.26089C35.6595 3.26089 35.9801 3.78152 35.9801 5.21672V13.3611H39.3759V3.78152C39.3751 1.23997 38.2857 0 35.9801 0H35.9792ZM22.3535 5.34515H25.8805C25.8805 3.91254 25.2377 3.13073 24.2126 3.13073C23.1232 3.13073 22.5463 3.84746 22.3535 5.34515ZM25.9397 9.06332H29.1537C29.0217 11.9927 27.2904 13.6874 24.2126 13.6874C20.8116 13.6874 18.8874 11.276 18.8874 6.90791C18.8874 5.60633 19.0803 4.43317 19.4651 3.52033C19.2856 3.42988 19.0874 3.38523 18.8874 3.39018C18.0577 3.39018 17.0935 4.10691 17.0935 5.9968V13.3611H13.6926V0.325394H16.5767L16.7755 1.2391C17.6044 0.325394 18.5652 0 20.2373 0V2.02178C21.2015 0.716736 22.5463 0 24.2126 0C27.1652 0 28.9566 2.02178 29.2137 5.4727C29.2822 6.32307 29.2822 6.90791 29.2822 7.82162H22.2875C22.3535 9.64643 23.0572 10.5584 24.2794 10.5584C25.2377 10.5584 25.8162 10.0378 25.9397 9.06332ZM8.99587 6.84283C8.99587 4.36636 8.48162 3.26089 7.26706 3.26089C6.04912 3.26089 5.53488 4.36636 5.53488 6.84283C5.53488 9.3219 6.04827 10.4317 7.26706 10.4317C8.48162 10.4317 8.99587 9.32103 8.99587 6.84283ZM12.396 0.326262V13.3611H9.51096L9.31896 12.45C8.74382 13.3611 7.71618 13.6874 6.55998 13.6874C3.67582 13.6874 2.13478 11.3411 2.13478 6.84283C2.13478 2.4782 3.73418 0 6.55998 0C7.71618 0 8.74382 0.393076 9.31896 1.2391L9.51096 0.325394H12.3951L12.396 0.326262ZM40.7537 15.8957C39.2871 15.8957 38.1216 16.2879 36.7379 17.16L28.5058 22.3464L40.7529 30.0691L53 22.3464L44.7662 17.16C43.3825 16.2879 42.2246 15.8957 40.7537 15.8957ZM12.2454 15.8957C10.7771 15.8957 9.61753 16.2879 8.22873 17.16L0 22.3464L12.2454 30.0691L24.4908 22.3464L16.2621 17.16C14.8767 16.2879 13.7137 15.8957 12.2454 15.8957ZM22.4829 36.5249L14.2542 31.3368L26.5013 23.6115L38.7441 31.3368L30.5146 36.5249C29.1275 37.3961 28.17 38 26.5004 38C24.8274 38 23.8717 37.3961 22.4829 36.5249Z" fill="white"></path>
</svg>