<svg preserveAspectRatio="xMidYMid meet" version="1.0" viewBox="0 0 500.000000 57.000000" width="165px" xmlns="http://www.w3.org/2000/svg">
<g fill="#000000" stroke="none" transform="translate(0.000000,57.000000) scale(0.100000,-0.100000)">
<path d="M4655 548 c-115 -40 -181 -182 -155 -330 15 -80 40 -128 87 -167 47 -39 89 -51 174 -51 49 0 77 6 115 25 81 40 114 101 114 212 l0 64 -112 -3 -113 -3 0 -40 0 -40 58 -3 c50 -3 57 -6 57 -23 0 -12 -15 -36 -34 -55 -31 -31 -40 -34 -91 -34 -51 0 -60 3 -90 33 -74 74 -68 244 11 306 52 41 171 17 189 -38 5 -18 14 -21 66 -21 58 0 60 1 53 23 -20 65 -65 116 -126 141 -43 18 -157 20 -203 4z"></path>
<path d="M10 280 l0 -270 55 0 55 0 2 172 3 172 123 -172 124 -172 49 0 49 0 0 270 0 270 -55 0 -55 0 -2 -172 -3 -171 -124 171 -124 172 -49 0 -48 0 0 -270z"></path>
<path d="M630 353 c0 -221 8 -254 69 -306 44 -37 96 -50 183 -46 90 5 146 36 178 99 18 36 20 58 20 245 l0 205 -55 0 -55 0 0 -180 c0 -242 -12 -270 -115 -270 -38 0 -52 5 -76 29 l-29 29 0 196 0 196 -60 0 -60 0 0 -197z"></path>
<path d="M1250 280 l0 -270 50 0 50 0 2 182 3 183 69 -168 69 -168 41 3 41 3 67 165 67 165 1 -182 0 -183 55 0 55 0 0 270 0 270 -69 0 -69 0 -75 -187 c-73 -181 -76 -187 -87 -158 -6 17 -39 100 -74 185 l-62 155 -67 3 -67 3 0 -271z"></path>
<path d="M1980 280 l0 -272 163 4 c148 3 165 5 198 26 44 27 69 75 69 131 0 49 -45 107 -93 119 l-31 8 30 12 c92 40 91 174 -2 222 -21 11 -71 16 -181 18 l-153 3 0 -271z m270 160 c11 -11 20 -31 20 -45 0 -45 -32 -65 -105 -65 l-65 0 0 65 0 65 65 0 c52 0 69 -4 85 -20z m19 -214 c27 -25 28 -79 1 -106 -16 -16 -33 -20 -95 -20 l-75 0 0 76 0 76 74 -4 c55 -2 80 -8 95 -22z"></path>
<path d="M2540 280 l0 -270 180 0 180 0 0 50 0 50 -120 0 -120 0 0 65 0 65 115 0 115 0 0 45 0 45 -115 0 -115 0 0 60 0 60 120 0 120 0 0 50 0 50 -180 0 -180 0 0 -270z"></path>
<path d="M3050 280 l0 -270 60 0 60 0 0 95 0 95 44 0 44 0 51 -95 52 -95 65 0 66 0 -57 106 c-31 58 -55 106 -53 108 1 1 15 9 29 18 36 23 59 77 59 141 0 68 -28 113 -90 145 -40 20 -59 22 -187 22 l-143 0 0 -270z m279 156 c15 -14 21 -31 21 -61 0 -60 -24 -78 -111 -83 l-69 -4 0 87 0 87 69 -4 c50 -2 75 -9 90 -22z"></path>
<path d="M3620 280 l0 -270 60 0 60 0 0 270 0 270 -60 0 -60 0 0 -270z"></path>
<path d="M3900 280 l0 -270 55 0 55 0 2 169 3 169 121 -166 120 -167 52 -3 52 -3 0 270 0 271 -60 0 -60 0 -2 -167 -3 -167 -120 167 -120 167 -47 0 -48 0 0 -270z"></path>
</g>
</svg>