<svg width="130" height="32" viewBox="0 0 130 32" fill="none" xmlns="http://www.w3.org/2000/svg">
<path d="M19.5757 12.7636C19.5757 11.2325 18.2937 9.98975 16.7142 9.98975H14.8374V23.372L6.34543 11.2922C5.77109 10.4769 4.81729 9.98975 3.80194 9.98975H0.509766V31.1071H5.24804V17.7547L13.7092 29.7947C14.2836 30.61 15.2374 31.0972 16.263 31.0972H19.5757V12.7636Z" fill="#111111"/>
<path d="M36.1393 15.2394H34.4265V23.5512C34.4265 25.132 34.1599 26.2853 33.6266 26.9713C33.0932 27.6573 32.2215 27.9954 31.0318 27.9954C29.9857 27.9954 29.2575 27.6772 28.8473 27.0608C28.437 26.4344 28.2319 25.47 28.2319 24.1875V18.0133C28.2319 16.4822 26.9396 15.2295 25.3602 15.2295H23.6475V24.9729C23.6475 25.9473 23.7398 26.852 23.9141 27.6474C24.0885 28.4527 24.4064 29.1487 24.8577 29.7154C25.2987 30.2821 25.914 30.7195 26.6935 31.0278C27.4627 31.336 28.4575 31.4851 29.6575 31.4851C30.601 31.4851 31.5446 31.2763 32.4471 30.8687C33.3496 30.4611 34.0881 29.8049 34.6522 28.9001V31.0874H39.011V18.0034C39.011 16.4723 37.729 15.2295 36.1495 15.2295L36.1393 15.2394Z" fill="#111111"/>
<path d="M48.5284 12.7636C48.5284 11.2325 47.2464 9.98975 45.6669 9.98975H43.9542V15.2393H41.1133V18.2518H43.9542V27.4881C43.9542 28.2835 44.0978 28.9397 44.3644 29.4368C44.6413 29.9339 45.0208 30.3217 45.5028 30.5901C45.9746 30.8586 46.5387 31.0375 47.1541 31.127C47.7694 31.2165 48.4361 31.2662 49.1232 31.2662C49.5847 31.2662 50.0975 31.2563 50.5488 31.2364C50.8462 31.2264 51.5847 31.1867 52.0257 31.1171H52.0769V27.6373H52.0052C51.7898 27.6969 51.5744 27.7268 51.3488 27.7466C51.1129 27.7665 50.6616 27.7765 50.4257 27.7765C49.6668 27.7765 49.1232 27.6572 48.8873 27.4285C48.6514 27.1998 48.5284 26.7226 48.5284 26.0067V18.2717H52.0769V15.2591H48.5284V12.7835V12.7636Z" fill="#111111"/>
<path d="M64.3223 14.812C63.7479 14.812 63.1941 14.8915 62.671 15.0606C62.1377 15.2296 61.6352 15.4583 61.1839 15.7565C60.7224 16.0548 60.3019 16.4127 59.943 16.8303C59.6148 17.218 59.3481 17.6356 59.143 18.083V18.0234C59.143 16.4923 57.861 15.2495 56.2816 15.2495H54.7842V31.1173H59.3686V23.9589C59.3686 23.253 59.4404 22.5968 59.584 21.9903C59.7276 21.3938 59.9737 20.8569 60.3122 20.4095C60.6506 19.9621 61.1019 19.6042 61.6557 19.3457C62.3941 18.9977 63.3787 18.8784 64.5479 18.9977C64.8351 19.0275 65.0915 19.0673 65.2966 19.1071H65.3684V14.981H65.3274C64.9684 14.8617 64.6299 14.812 64.3325 14.812H64.3223Z" fill="#111111"/>
<path d="M90.1475 17.0987C89.4091 16.3729 88.5066 15.8062 87.4707 15.4085C86.4348 15.0109 85.2554 14.812 83.9734 14.812C82.6914 14.812 81.5222 15.0109 80.4966 15.4085C79.471 15.8062 78.5788 16.3729 77.8403 17.0987C77.1019 17.8245 76.5276 18.7094 76.1276 19.7434C75.7276 20.7674 75.5225 21.9307 75.5225 23.1933C75.5225 24.456 75.7276 25.6093 76.1276 26.6234C76.5276 27.6375 77.1019 28.5224 77.8403 29.2482C78.5788 29.974 79.471 30.5307 80.4966 30.9185C81.5222 31.3062 82.7017 31.5051 83.9734 31.5051C85.2451 31.5051 86.4246 31.3062 87.4707 30.9185C88.5066 30.5307 89.4091 29.964 90.1475 29.2482C90.886 28.5224 91.4603 27.6375 91.8603 26.6234C92.2603 25.6093 92.4654 24.456 92.4654 23.1933C92.4654 21.9307 92.2603 20.7774 91.8603 19.7434C91.4603 18.7193 90.886 17.8245 90.1475 17.0987ZM82.1273 18.6199C82.6196 18.3316 83.2452 18.1824 83.9837 18.1824C84.7221 18.1824 85.3477 18.3316 85.8503 18.6199C86.3528 18.9082 86.7528 19.286 87.0502 19.7434C87.3476 20.2007 87.563 20.7376 87.6861 21.3341C87.8092 21.9406 87.8707 22.557 87.8707 23.1834C87.8707 23.8098 87.8092 24.4162 87.6861 25.0128C87.563 25.5994 87.3476 26.1363 87.0502 26.6035C86.7528 27.0708 86.3425 27.4486 85.8503 27.727C85.3477 28.0054 84.7221 28.1446 83.9837 28.1446C83.2452 28.1446 82.6196 28.0054 82.1273 27.727C81.635 27.4486 81.2351 27.0708 80.9376 26.6035C80.6402 26.1363 80.4248 25.5994 80.3018 25.0128C80.1787 24.4262 80.1172 23.8098 80.1172 23.1834C80.1172 22.557 80.1787 21.9406 80.3018 21.3341C80.4248 20.7376 80.6402 20.2007 80.9376 19.7434C81.2351 19.286 81.635 18.9082 82.1273 18.6199Z" fill="#111111"/>
<path d="M109.429 16.6117C108.988 16.045 108.372 15.5976 107.593 15.2795C106.824 14.9613 105.829 14.8022 104.629 14.8022C103.685 14.8022 102.742 15.011 101.839 15.4286C100.937 15.8462 100.198 16.5123 99.6342 17.4171C99.6034 16.2041 98.5676 15.2198 97.3163 15.2198H95.2754V31.0877H99.8598V22.7759C99.8598 21.1951 100.126 20.0418 100.66 19.3558C101.193 18.6698 102.065 18.3318 103.255 18.3318C104.301 18.3318 105.029 18.6499 105.439 19.2663C105.849 19.8927 106.054 20.8571 106.054 22.1396V31.0877H110.639V21.3443C110.639 20.3699 110.547 19.4751 110.372 18.6698C110.198 17.8645 109.88 17.1685 109.439 16.6018L109.429 16.6117Z" fill="#111111"/>
<path d="M127.726 17.6954C127.059 16.8205 126.208 16.1146 125.172 15.5877C124.146 15.0707 122.916 14.8022 121.531 14.8022C120.29 14.8022 119.152 15.021 118.126 15.4485C117.111 15.876 116.218 16.4725 115.48 17.2083C114.742 17.9539 114.167 18.8487 113.767 19.8629C113.367 20.877 113.162 21.9905 113.162 23.1736C113.162 24.3568 113.357 25.53 113.747 26.5441C114.136 27.5582 114.69 28.453 115.408 29.1788C116.126 29.9145 117.008 30.4812 118.034 30.8789C119.059 31.2766 120.229 31.4754 121.511 31.4754C123.357 31.4754 124.957 31.0579 126.259 30.2525C127.562 29.4373 128.546 28.0652 129.172 26.1663L129.203 26.0867H125.141V26.1265C124.987 26.5938 124.598 27.0511 123.962 27.4786C123.326 27.9062 122.557 28.1249 121.675 28.1249C120.444 28.1249 119.48 27.8167 118.823 27.2003C118.177 26.5938 117.818 25.5996 117.747 24.2573H129.459V24.2076C129.551 22.9947 129.438 21.8016 129.151 20.6881C128.854 19.5745 128.372 18.5604 127.715 17.6855L127.726 17.6954ZM119.664 18.5306C120.126 18.3019 120.711 18.1826 121.408 18.1826C122.475 18.1826 123.275 18.461 123.798 19.0178C124.31 19.5646 124.68 20.3699 124.885 21.4139H117.767C117.788 21.1355 117.859 20.8074 117.962 20.4495C118.075 20.0716 118.27 19.7137 118.547 19.3757C118.823 19.0377 119.193 18.7493 119.654 18.5207L119.664 18.5306Z" fill="#111111"/>
<path d="M68.1484 19.2762V30.9683H72.7329V14.832C70.1996 14.832 68.1484 16.8205 68.1484 19.2762Z" fill="#111111"/>
<path d="M75.543 6.39088C72.2509 7.1465 69.3381 9.23437 68.61 13.2212C70.9791 7.96176 76.2712 8.66766 78.7942 7.3354C76.8661 9.20455 69.2458 9.11507 68.0664 16.8303C69.892 11.7398 75.9635 12.6147 80.0762 10.7058C84.3222 8.73726 85.9426 4.87966 86.0554 0.495117C84.0145 5.82417 79.0096 5.5955 75.543 6.39088Z" fill="#111111"/>
</svg>
