<svg fill="none" height="24" viewBox="0 0 122 24" width="122" xmlns="http://www.w3.org/2000/svg">
<g clip-path="url(#clip0_294_195)">
<path d="M8.767 5.845C7.03318 5.845 5.33829 6.3591 3.89663 7.3223C2.45497 8.2855 1.33128 9.65454 0.667639 11.2563C0.00399745 12.8581 -0.169794 14.6207 0.16824 16.3213C0.506274 18.0218 1.34095 19.5839 2.56674 20.8101C3.79253 22.0364 5.35437 22.8716 7.05481 23.2102C8.75524 23.5488 10.5179 23.3756 12.1199 22.7125C13.7219 22.0494 15.0913 20.9262 16.055 19.4849C17.0187 18.0435 17.5334 16.3488 17.534 14.615C17.5344 13.4634 17.3079 12.3231 16.8675 11.2591C16.4271 10.1951 15.7814 9.22827 14.9673 8.41386C14.1531 7.59945 13.1865 6.95341 12.1227 6.51264C11.0588 6.07187 9.91856 5.845 8.767 5.845ZM8.767 21.045C7.49568 21.0442 6.25313 20.6665 5.19644 19.9596C4.13974 19.2528 3.31634 18.2485 2.83033 17.0737C2.34432 15.899 2.21751 14.6065 2.46595 13.3597C2.71438 12.1129 3.3269 10.9677 4.22607 10.069C5.12525 9.1702 6.2707 8.55822 7.51763 8.31036C8.76455 8.06251 10.057 8.18992 11.2315 8.67648C12.406 9.16304 13.4099 9.9869 14.1163 11.0439C14.8227 12.101 15.1998 13.3437 15.2 14.615C15.2 15.4593 15.0337 16.2953 14.7106 17.0753C14.3875 17.8553 13.914 18.564 13.317 19.161C12.72 19.758 12.0113 20.2315 11.2313 20.5546C10.4513 20.8777 9.61527 21.044 8.771 21.044" fill="#1A1407"></path>
<path d="M36.5098 8.665C35.3134 7.36895 33.754 6.4639 32.0351 6.06809C30.3163 5.67229 28.5181 5.80413 26.8754 6.44641C25.2326 7.08869 23.8219 8.21152 22.8273 9.66821C21.8328 11.1249 21.3008 12.8477 21.3008 14.6115C21.3008 16.3753 21.8328 18.0981 22.8273 19.5548C23.8219 21.0115 25.2326 22.1343 26.8754 22.7766C28.5181 23.4189 30.3163 23.5507 32.0351 23.1549C33.754 22.7591 35.3134 21.854 36.5098 20.558V23.087H38.8498V0H36.5098V8.665ZM30.0808 21.041C28.8092 21.041 27.5663 20.6639 26.509 19.9575C25.4518 19.2511 24.6278 18.247 24.1412 17.0723C23.6546 15.8975 23.5273 14.6049 23.7753 13.3578C24.0234 12.1107 24.6357 10.9651 25.5348 10.066C26.4339 9.1669 27.5794 8.5546 28.8265 8.30653C30.0737 8.05847 31.3663 8.18578 32.5411 8.67238C33.7158 9.15897 34.7199 9.983 35.4263 11.0402C36.1327 12.0975 36.5098 13.3405 36.5098 14.612C36.5098 16.3171 35.8324 17.9523 34.6268 19.158C33.4211 20.3637 31.7859 21.041 30.0808 21.041Z" fill="#1A1407"></path>
<path d="M52.0168 5.845C50.4359 5.84432 48.8842 6.27115 47.526 7.0803C46.1679 7.88944 45.0537 9.05078 44.3017 10.4414C43.5496 11.832 43.1875 13.4 43.2538 14.9796C43.3201 16.5591 43.8123 18.0914 44.6782 19.414C45.5441 20.7367 46.7516 21.8007 48.1728 22.4932C49.594 23.1857 51.176 23.481 52.7514 23.3479C54.3267 23.2147 55.8367 22.6581 57.1215 21.7369C58.4063 20.8157 59.4182 19.5642 60.0498 18.115H57.4018C56.7012 19.1917 55.6938 20.0336 54.5097 20.5319C53.3257 21.0302 52.0194 21.162 50.7597 20.9103C49.4999 20.6586 48.3446 20.0349 47.443 19.1198C46.5414 18.2047 45.9349 17.0403 45.7018 15.777H60.7018C60.8778 14.5372 60.7844 13.2741 60.4281 12.0737C60.0718 10.8733 59.4608 9.76377 58.637 8.82079C57.8131 7.87781 56.7956 7.12352 55.6539 6.6093C54.5122 6.09508 53.273 5.83303 52.0208 5.841M45.7028 13.441C45.9751 11.9642 46.7562 10.6295 47.9103 9.66873C49.0644 8.70797 50.5187 8.18189 52.0203 8.18189C53.522 8.18189 54.9762 8.70797 56.1304 9.66873C57.2845 10.6295 58.0655 11.9642 58.3378 13.441H45.7028Z" fill="#1A1407"></path>
<path d="M120.011 14.615C120.012 12.4442 119.209 10.3499 117.756 8.73704C116.303 7.1242 114.303 6.10736 112.144 5.8831C109.985 5.65883 107.819 6.24308 106.066 7.52288C104.312 8.80269 103.096 10.6871 102.651 12.8119C102.206 14.9367 102.565 17.151 103.658 19.0265C104.751 20.9021 106.501 22.3058 108.569 22.9663C110.637 23.6267 112.876 23.497 114.854 22.6023C116.832 21.7075 118.408 20.1112 119.277 18.122H116.629C115.928 19.1987 114.921 20.0406 113.737 20.5389C112.553 21.0372 111.246 21.169 109.987 20.9173C108.727 20.6656 107.572 20.0419 106.67 19.1268C105.768 18.2117 105.162 17.0473 104.929 15.784H119.929C119.983 15.3967 120.012 15.0061 120.015 14.615M104.93 13.446C105.202 11.9692 105.983 10.6345 107.137 9.67373C108.291 8.71297 109.746 8.18689 111.247 8.18689C112.749 8.18689 114.203 8.71297 115.357 9.67373C116.511 10.6345 117.293 11.9692 117.565 13.446H104.93Z" fill="#1A1407"></path>
<path d="M91.9518 13.035C88.3648 12.506 87.0908 12.058 87.0908 10.6C87.0908 9.1 88.9978 7.962 91.5278 7.962C93.9398 7.962 95.6538 8.991 96.1588 10.725H98.7357C98.2437 7.663 95.5718 5.845 91.5278 5.845C86.7478 5.845 84.5697 8.362 84.5697 10.7C84.5697 13.758 87.1207 14.7 91.5267 15.291C95.9187 15.843 96.7507 16.737 96.7507 18.191C96.7507 19.7 95.0788 21.229 91.8848 21.229C89.1518 21.229 87.0328 19.939 86.5328 17.998H83.9688C84.5688 21.325 87.5688 23.378 91.8858 23.378C96.2398 23.378 99.1647 21.227 99.1647 18.025C99.1647 14.377 96.1758 13.655 91.9528 13.034" fill="#1A1407"></path>
<path d="M73.6429 5.84501H71.2169C70.4177 5.90755 69.643 6.14965 68.9504 6.55325C68.2579 6.95685 67.6653 7.51155 67.2169 8.17601V6.13601H64.8789V23.067H67.2169V12.257C67.2201 11.1739 67.6524 10.1362 68.4192 9.37128C69.1861 8.60634 70.2248 8.17653 71.3079 8.17601H73.6459C74.7301 8.17653 75.7697 8.60717 76.5367 9.3734C77.3037 10.1396 77.7353 11.1789 77.7369 12.263V23.063H80.0749V12.263C80.0744 11.4194 79.9076 10.5842 79.5842 9.80502C79.2608 9.02588 78.7871 8.31808 78.1901 7.72208C77.593 7.12607 76.8844 6.65353 76.1047 6.33146C75.325 6.00938 74.4895 5.84409 73.6459 5.84501" fill="#1A1407"></path>
</g>
<defs>
<clipPath id="clip0_294_195">
<rect fill="white" height="24" width="122"></rect>
</clipPath>
</defs>
</svg>